<svg xmlns="http://www.w3.org/2000/svg" width="31.904" height="31.904" viewBox="0 0 31.904 31.904">
  <defs>
    <style>
      .cls-1 {
        fill: #fff;
      }
    </style>
  </defs>
  <path id="Path_1" data-name="Path 1" class="cls-1" d="M25.072,44.882H12.4l-.736-3.2H28.278L31.9,25.92H8.041L6.785,20.46H0v2.262H5.16l5.123,22.27a3.7,3.7,0,0,0-2.613,3.631,3.605,3.605,0,0,0,3.442,3.741,3.605,3.605,0,0,0,3.442-3.741,4,4,0,0,0-.281-1.479H21.91a4,4,0,0,0-.281,1.479,3.605,3.605,0,0,0,3.442,3.741,3.754,3.754,0,0,0,0-7.482Zm-7.186-5.46H15.575l-.516-4.488h2.827v4.488Zm7.782-11.239h3.571l-1.032,4.488H25.151Zm-.776,6.751h2.795l-1.032,4.488H24.375Zm-4.924-6.751h3.6l-.516,4.488H19.967V28.182Zm0,6.751h2.827l-.516,4.488H19.967V34.933Zm-2.081-6.751v4.488H14.8l-.516-4.488Zm-9.325,0h3.624l.516,4.488H9.593Zm1.553,6.751h2.848l.516,4.488H11.146Zm1,15.169a1.484,1.484,0,0,1,0-2.958,1.484,1.484,0,0,1,0,2.958Zm13.96,0a1.484,1.484,0,1,1,1.361-1.479A1.425,1.425,0,0,1,25.072,50.1Z" transform="translate(0 -20.46)"/>
</svg>
