<svg xmlns="http://www.w3.org/2000/svg" width="36.94" height="30" viewBox="0 0 36.94 30">
  <g id="delivery-truck" transform="translate(48 -90.939)">
    <path id="Path_5" data-name="Path 5" d="M1.3,110.927V92.766a1.718,1.718,0,0,1,1.581-1.827H18.586a1.718,1.718,0,0,1,1.581,1.827v18.161a.573.573,0,0,1-.527.609H1.823A.573.573,0,0,1,1.3,110.927Zm12.685,6.222a3.563,3.563,0,0,1-3.28,3.79,3.83,3.83,0,0,1,0-7.58A3.563,3.563,0,0,1,13.981,117.149Zm-1.64,0a1.781,1.781,0,0,0-1.64-1.895,1.915,1.915,0,0,0,0,3.79A1.781,1.781,0,0,0,12.341,117.149Zm-4.465-3.79H.527a.573.573,0,0,0-.527.609v1.848a.573.573,0,0,0,.527.609H6.418A5.249,5.249,0,0,1,7.877,113.359Zm23.265,3.79a3.563,3.563,0,0,1-3.28,3.79,3.83,3.83,0,0,1,0-7.58A3.563,3.563,0,0,1,31.141,117.149Zm-1.64,0a1.657,1.657,0,1,0-1.64,1.9A1.781,1.781,0,0,0,29.5,117.149Zm7.438-3.181v1.848a.573.573,0,0,1-.527.609H32.145a4.6,4.6,0,0,0-4.283-4.284,4.6,4.6,0,0,0-4.284,4.284H14.985a5.25,5.25,0,0,0-1.459-3.066h8.148V95.937a1.145,1.145,0,0,1,1.054-1.218H27.7A4.1,4.1,0,0,1,31.2,96.865l3.208,5.491a5.424,5.424,0,0,1,.722,2.727v8.277h1.283A.573.573,0,0,1,36.94,113.968ZM31.592,102.5l-2.565-4.212a.51.51,0,0,0-.431-.259h-4a.573.573,0,0,0-.527.609v4.212a.573.573,0,0,0,.527.609h6.567A.619.619,0,0,0,31.592,102.5Z" transform="translate(-48 0)" fill="#013440"/>
  </g>
</svg>
