<svg xmlns="http://www.w3.org/2000/svg" width="30.4" height="30" viewBox="0 0 30.4 30">
  <g id="loupe" transform="translate(0 14.997)" opacity="0.7">
    <g id="Group_20" data-name="Group 20" transform="translate(0 0.003)">
      <path id="Path_6" data-name="Path 6" d="M30.029,27.869l-8.645-8.531a11.722,11.722,0,0,0,2.683-7.46A11.969,11.969,0,0,0,12.033,0,11.969,11.969,0,0,0,0,11.878a12.056,12.056,0,0,0,19.593,9.228l8.645,8.531a1.278,1.278,0,0,0,1.791,0A1.237,1.237,0,0,0,30.029,27.869Zm-18-6.616a9.448,9.448,0,0,1-9.5-9.375,9.5,9.5,0,0,1,19,0A9.448,9.448,0,0,1,12.033,21.253Z" transform="translate(0 -15.003)" fill="#013440"/>
    </g>
  </g>
</svg>
