<svg id="Group_15" data-name="Group 15" xmlns="http://www.w3.org/2000/svg" width="35" height="35" viewBox="0 0 35 35">
  <path id="Path_1" data-name="Path 1" d="M27.5,47.251h-13.9L12.8,43.743H31.022L35,26.45H8.821L7.443,20.46H0v2.482H5.66l5.62,24.431a4.06,4.06,0,0,0-2.867,3.983,3.955,3.955,0,0,0,3.776,4.1,3.955,3.955,0,0,0,3.776-4.1,4.385,4.385,0,0,0-.308-1.623h8.379a4.386,4.386,0,0,0-.308,1.623,3.955,3.955,0,0,0,3.776,4.1,4.119,4.119,0,0,0,0-8.209Zm-7.883-5.99H17.086l-.566-4.924h3.1v4.924Zm8.537-12.33h3.918l-1.133,4.924H27.592Zm-.852,7.406h3.066L29.24,41.261h-2.5Zm-5.4-7.406h3.953l-.566,4.924H21.9V28.932Zm0,7.406h3.1l-.566,4.924H21.9V36.337Zm-2.283-7.406v4.924H16.235l-.566-4.924h3.953Zm-10.229,0h3.976l.566,4.924H10.524Zm1.7,7.406h3.124l.566,4.924H12.228ZM12.19,52.979a1.628,1.628,0,0,1,0-3.246,1.628,1.628,0,0,1,0,3.246Zm15.315,0A1.628,1.628,0,1,1,29,51.356,1.564,1.564,0,0,1,27.5,52.979Z" transform="translate(0 -20.46)" fill="#013440"/>
</svg>
