<svg xmlns="http://www.w3.org/2000/svg" width="38.111" height="35" viewBox="0 0 38.111 35">
  <g id="Path_13" data-name="Path 13" transform="translate(0 0)" fill="#013440">
    <path d="M 19.05555725097656 33.17793655395508 C 14.66370105743408 30.1153736114502 11.02409744262695 27.03789329528809 8.22801685333252 24.02158355712891 C 5.60349702835083 21.19034385681152 3.715977191925049 18.41050338745117 2.617877244949341 15.75928401947021 C 1.770137310028076 13.71178436279297 1.401547193527222 11.76034450531006 1.522437214851379 9.959354400634766 C 1.628657221794128 8.376764297485352 2.109577178955078 6.935294151306152 2.951837301254272 5.674964427947998 C 4.672817230224609 3.099764347076416 7.790807247161865 1.500014305114746 11.0890474319458 1.500014305114746 C 13.83583736419678 1.500014305114746 16.25221633911133 2.608174324035645 17.89306640625 4.620374202728271 L 19.05555725097656 6.045944213867188 L 20.21804809570312 4.620374202728271 C 21.8588981628418 2.608174324035645 24.27527809143066 1.500014305114746 27.02206802368164 1.500014305114746 C 30.3206672668457 1.500014305114746 33.43880844116211 3.099654197692871 35.1596565246582 5.674674034118652 C 36.00186538696289 6.934934139251709 36.48273849487305 8.376374244689941 36.58889770507812 9.95897388458252 C 36.7097282409668 11.76001453399658 36.34105682373047 13.71157455444336 35.49315643310547 15.75945472717285 C 34.39512634277344 18.41050338745117 32.50760650634766 21.19034385681152 29.88308715820312 24.02158355712891 C 27.08700752258301 27.03789329528809 23.44741249084473 30.1153736114502 19.05555725097656 33.17793655395508 Z" stroke="none"/>
    <path d="M 19.05555725097656 31.34220695495605 C 28.81369972229004 24.37434005737305 32.63150405883789 18.74866485595703 34.10724639892578 15.18563461303711 C 35.50981903076172 11.79813385009766 35.44247817993164 8.797504425048828 33.91251754760742 6.508134365081787 C 33.20129776000977 5.443884372711182 32.17805862426758 4.554904460906982 30.95341682434082 3.937294244766235 C 29.73755645751953 3.324124336242676 28.37811660766602 3.000014305114746 27.02206802368164 3.000014305114746 C 24.73461723327637 3.000014305114746 22.73108673095703 3.912124156951904 21.38053703308105 5.568324089050293 L 19.05556678771973 8.419464111328125 L 16.73058700561523 5.568334102630615 C 15.38001728057861 3.912124156951904 13.37648677825928 3.000014305114746 11.0890474319458 3.000014305114746 C 9.733226776123047 3.000014305114746 8.373947143554688 3.32414436340332 7.158157348632812 3.937354326248169 C 5.93352746963501 4.555024147033691 4.910257339477539 5.444084167480469 4.198977470397949 6.508414268493652 C 2.668917179107666 8.797954559326172 2.601447343826294 11.79848384857178 4.003717422485352 15.18529415130615 C 5.479594230651855 18.74863815307617 9.297406196594238 24.37433052062988 19.05555725097656 31.34220695495605 M 19.05555725097656 35.00000381469727 C 8.809507369995117 28.01165390014648 3.43585729598999 21.65412521362305 1.232047200202942 16.33327484130859 C -4.671833038330078 2.07407283782959 12.19143295288086 -4.745114803314209 19.05555725097656 3.672414302825928 C 25.91966247558594 -4.745114803314209 42.782958984375 2.074072599411011 36.87905883789062 16.33327484130859 C 34.67524719238281 21.65412521362305 29.30160713195801 28.01165390014648 19.05555725097656 35.00000381469727 Z" stroke="none" fill="#013440"/>
  </g>
</svg>
