<svg xmlns="http://www.w3.org/2000/svg" width="36.521" height="33.54" viewBox="0 0 36.521 33.54">
  <defs>
    <style>
      .cls-1 {
        fill: none;
      }

      .cls-2, .cls-3 {
        stroke: none;
      }

      .cls-3 {
        fill: #013440;
      }
    </style>
  </defs>
  <g id="Path_13" data-name="Path 13" class="cls-1">
    <path class="cls-2" d="M18.261,33.54c-9.819-6.7-14.968-12.789-17.08-17.888-5.658-13.664,10.5-20.2,17.08-12.133C24.838-4.547,41,1.988,35.341,15.652,33.229,20.751,28.079,26.843,18.261,33.54Z"/>
    <path class="cls-3" d="M 18.26069068908691 31.10713768005371 C 22.29244804382324 28.26999855041504 25.64016532897949 25.42446517944336 28.22399139404297 22.63712501525879 C 30.69353103637695 19.97307395935059 32.46625900268555 17.36543464660645 33.49285125732422 14.88687419891357 C 34.95392227172852 11.35805416107178 34.86141204833984 8.198763847351074 33.22529983520508 5.75054407119751 C 31.67928123474121 3.437124252319336 28.87042999267578 2.000004291534424 25.89488983154297 2.000004291534424 C 23.43496131896973 2.000004291534424 21.27420997619629 2.988414287567139 19.8106803894043 4.783164024353027 L 18.26069068908691 6.683924198150635 L 16.7107105255127 4.783164024353027 C 15.24717044830322 2.988414287567139 13.08642101287842 2.000004291534424 10.62649059295654 2.000004291534424 C 7.651290893554688 2.000004291534424 4.842580795288086 3.437234163284302 3.296440601348877 5.750823974609375 C 1.660240650177002 8.199193954467773 1.567590713500977 11.35838413238525 3.028440713882446 14.88664436340332 C 4.055110454559326 17.36543464660645 5.827840805053711 19.97307395935059 8.297380447387695 22.63712501525879 C 10.88120651245117 25.42446517944336 14.22893142700195 28.26999855041504 18.26069068908691 31.10713768005371 M 18.26069068908691 33.54005432128906 C 8.442030906677246 26.84320449829102 3.292540788650513 20.75086402893066 1.180660724639893 15.65196418762207 C -4.476959228515625 1.987553596496582 11.68288516998291 -4.547184944152832 18.26069068908691 3.519224166870117 C 24.83847618103027 -4.547184944152832 40.99834060668945 1.987553358078003 35.34072113037109 15.65196418762207 C 33.22883224487305 20.75086402893066 28.0793399810791 26.84320449829102 18.26069068908691 33.54005432128906 Z"/>
  </g>
</svg>
