<svg xmlns="http://www.w3.org/2000/svg" width="48.929" height="48.929" viewBox="0 0 48.929 48.929">
  <path id="tiktok" d="M24.464,0A24.464,24.464,0,1,0,48.929,24.464,24.467,24.467,0,0,0,24.464,0ZM36.738,18.718v3.313a11.559,11.559,0,0,1-7.073-2.4l.024,10.2A8.541,8.541,0,0,1,27.126,35.9a8.719,8.719,0,0,1-4.871,2.436,8.979,8.979,0,0,1-1.316.1,8.748,8.748,0,0,1-5.362-1.813,8.9,8.9,0,0,1-.824-.72,8.572,8.572,0,0,1-.387-11.821,8.747,8.747,0,0,1,6.573-2.94,8.978,8.978,0,0,1,1.316.1V25.87a4.124,4.124,0,1,0,2.837,3.918L25.1,22.96V10.495h4.562a7.061,7.061,0,0,0,7.066,7s.014,0,.013,0v1.229Z"/>
</svg>
